<?xml version="1.0" encoding="utf-8"?><svg viewBox="0 0 576 512" xmlns="http://www.w3.org/2000/svg" xmlns:xlink="http://www.w3.org/1999/xlink"><style>:root>svg{display:none}:root>svg:target{display:block}</style><svg fill="none" viewBox="0 0 5 10" id="arrow" xmlns="http://www.w3.org/2000/svg"><path d="M4.658.712l.138.138a.234.234 0 010 .332L.978 5l3.818 3.818a.234.234 0 010 .332l-.138.138a.234.234 0 01-.332 0L.204 5.166a.234.234 0 010-.332L4.326.712a.234.234 0 01.332 0z" fill="#F57500"/></svg><svg fill="none" viewBox="0 0 20 14" id="bars-solid" xmlns="http://www.w3.org/2000/svg"><g clip-path="url(#bclip0)"><path d="M.714 1.61h18.572c.394 0 .714-.196.714-.438V.078c0-.242-.32-.437-.714-.437H.714C.32-.36 0-.164 0 .078v1.094c0 .242.32.437.714.437zm0 6.374h18.572c.394 0 .714-.195.714-.437V6.453c0-.242-.32-.437-.714-.437H.714C.32 6.016 0 6.21 0 6.453v1.094c0 .242.32.437.714.437zm0 6.375h18.572c.394 0 .714-.195.714-.437v-1.094c0-.242-.32-.437-.714-.437H.714c-.394 0-.714.195-.714.437v1.094c0 .242.32.437.714.437z" fill="#fff"/></g><defs><clipPath id="bclip0"><path fill="#fff" d="M0 0h20v14H0z"/></clipPath></defs></svg><svg viewBox="0 0 20 20" id="close" xmlns="http://www.w3.org/2000/svg"><path d="M18.75 18.75L1.25 1.25m0 17.5l17.5-17.5-17.5 17.5z"/></svg><svg fill="none" viewBox="0 0 37 60" id="decoration" xmlns="http://www.w3.org/2000/svg"><path stroke="#5A5A5A" d="M.429.743l17.7 29.5M.429 15.493l17.7 29.5M.429 30.243l17.7 29.5M18.129.743l17.7 29.5M18.129 15.493l17.7 29.5M18.129 30.243l17.7 29.5"/></svg><svg aria-hidden="true" data-prefix="fab" data-icon="facebook-f" class="esvg-inline--fa efa-facebook-f efa-w-10" viewBox="0 0 320 512" id="facebook-f-brands" xmlns="http://www.w3.org/2000/svg"><path fill="#fff" d="M279.14 288l14.22-92.66h-88.91v-60.13c0-25.35 12.42-50.06 52.24-50.06h40.42V6.26S260.43 0 225.36 0c-73.22 0-121.08 44.38-121.08 124.72v70.62H22.89V288h81.39v224h100.17V288z"/></svg><svg fill="none" viewBox="0 0 478 478" id="gear" xmlns="http://www.w3.org/2000/svg"><g clip-path="url(#fclip0)" transform="matrix(1 0 0 1.02647 0 0)"><path d="M220.608 476.726c-.524-.152-3.154-.767-5.845-1.369-2.692-.6-5.068-1.362-5.281-1.692-.213-.33-1.042-8.819-1.842-18.863-.8-10.046-1.523-18.628-1.605-19.07-.12-.637-1.368-1.055-6.016-2.01-7.69-1.582-18.241-4.525-25.557-7.13-3.231-1.15-6.054-1.94-6.274-1.754-.22.185-5.286 6.984-11.26 15.11-5.973 8.124-11.134 15.008-11.467 15.297-.471.408-1.817.134-6.01-1.224-16.038-5.194-30.809-14.01-41.231-24.609l-2.494-2.536 8.268-17.428c4.546-9.585 8.28-17.569 8.298-17.741.017-.172-1.436-1.552-3.23-3.066-6.18-5.216-14.335-13.512-22.623-23.012l-1.582-1.813-17.754 7.725c-16.773 7.299-17.806 7.678-18.72 6.887-.533-.46-2.804-2.914-5.047-5.452-9.754-11.037-17.996-26.075-21.723-39.637l-1.05-3.823 1.317-.858c.724-.472 7.92-5.344 15.992-10.826 11.559-7.851 14.657-10.177 14.588-10.956-.049-.544-1.016-3.729-2.15-7.078-2.399-7.087-5.296-18.229-6.502-25.006l-.845-4.745-6.518-1c-3.585-.55-12.362-1.61-19.505-2.358l-12.986-1.36-1.364-6.384C1.002 251.51.061 242.91.003 235.299c-.064-8.345 2.63-25.58 4.21-26.934.258-.22 9.077-1.062 19.598-1.87l19.129-1.47.72-3.59c1.99-9.906 6.794-27.021 9.278-33.045.337-.818-1.645-2.446-15.352-12.621l-15.738-11.683.489-1.907c1.012-3.946 4.988-14.39 7.178-18.854 4.664-9.51 12.93-21.154 18.9-26.622l2.146-1.966 17.285 8.282c9.506 4.556 17.484 8.304 17.73 8.33.244.025 1.98-1.72 3.858-3.88 5.146-5.92 11.942-12.679 18.284-18.185 5.185-4.502 5.65-5.04 5.24-6.06-.25-.617-3.76-8.695-7.802-17.953L97.808 48.44l2.074-2.065c10.168-10.124 25.482-19.462 39.36-24.002 8.824-2.885 6.585-4.51 19.313 14.014l11.04 16.065 4.343-1.485c8.802-3.007 23.034-6.616 30.982-7.855l2.038-.318.781-4.692c.43-2.58 1.438-11.298 2.24-19.372l1.46-14.68 1.78-.536c8.64-2.599 22.11-3.962 33.363-3.377 8.426.438 21.339 3.076 22.033 4.501.142.29.929 8.925 1.748 19.188.82 10.263 1.617 18.818 1.772 19.012.155.192 2.656.847 5.557 1.455 7.638 1.598 19.014 4.745 25.827 7.143 3.254 1.145 5.967 2.087 6.03 2.094.064.007 5.308-7.026 11.655-15.629 11.51-15.6 11.543-15.64 12.969-15.239 12.599 3.54 26.832 10.58 36.498 18.056 4.483 3.468 10.92 9.427 11.171 10.342.1.36-3.46 8.343-7.911 17.737-4.45 9.395-8.109 17.256-8.13 17.47-.021.213 1.43 1.626 3.223 3.14 4.714 3.98 13.612 12.799 18.073 17.914 2.12 2.428 4.366 4.973 4.995 5.655l1.143 1.238 17.791-7.705 17.791-7.705 2.055 2.05c3.357 3.347 10.192 11.928 13.09 16.432 5.492 8.53 10.679 20.119 12.758 28.504l.685 2.763-16.117 11.014-16.117 11.012 2.168 6.43c2.47 7.317 5.265 17.944 6.75 25.645.556 2.885 1.104 5.366 1.218 5.512.114.147 8.83 1.279 19.37 2.517l19.165 2.25.881 3.03c1.526 5.25 3.149 17.681 3.274 25.083.17 10.05-2.384 27.18-4.282 28.724-.332.27-8.814 1.101-18.85 1.849-10.035.747-18.607 1.424-19.05 1.503-.635.113-1.045 1.358-1.975 6.006-1.539 7.686-4.423 18.228-6.987 25.533-1.132 3.228-1.905 6.038-1.717 6.246.187.208 7.011 5.311 15.162 11.34 8.153 6.03 15.06 11.241 15.35 11.58.41.481.143 1.824-1.193 6.016-3.12 9.793-8.103 20.243-13.14 27.56-4.455 6.468-12.826 15.79-14.062 15.66-.312-.032-8.195-3.72-17.517-8.197-9.323-4.476-17.112-8.154-17.31-8.174-.197-.022-2.338 2.207-4.756 4.951-4.728 5.367-12.166 12.728-18.878 18.685l-4.178 3.707 7.804 17.817 7.803 17.815-2.042 2.05c-3.332 3.343-11.869 10.135-16.356 13.013-8.504 5.453-20.096 10.595-28.418 12.605l-2.758.666-10.463-15.245c-5.755-8.385-10.81-15.63-11.233-16.099-.707-.786-1.244-.699-6.734 1.093-9.004 2.94-21.839 6.12-29.063 7.202-1.847.277-2.094.48-2.527 2.09-.263.981-1.267 9.7-2.23 19.374l-1.75 17.59-2.217.717c-3.477 1.124-14.438 2.804-20.934 3.205-5.369.333-20.288-.45-22.887-1.201zm21.809-106.41c29.785-.777 57.25-10.864 79.77-29.298 31.532-25.808 49.015-63.886 48.018-104.585-.597-24.396-8.03-48.235-21.564-69.158-3.705-5.727-12.312-16.283-17.177-21.065-21.995-21.619-49.24-34.534-79.48-37.676-35.255-3.662-68.776 6.293-96.08 28.534-22.413 18.258-37.136 41.59-44.474 70.486-2.292 9.027-3.972 24.705-3.633 33.888.794 21.425 5.752 40.357 15.291 58.386 4.658 8.803 8.247 14.224 14.474 21.86 20.458 25.088 47.796 40.97 81.026 47.073 4.48.823 18.02 1.706 23.829 1.555z" fill="#fff" fill-opacity=".04"/></g><defs id="fdefs9"><clipPath id="fclip0"><path fill="#fff" transform="translate(.022 .321)" id="frect6" d="M0 0h477.957v465.357H0z"/></clipPath></defs></svg><svg aria-hidden="true" data-prefix="fab" data-icon="instagram" class="gsvg-inline--fa gfa-instagram gfa-w-14" viewBox="0 0 448 512" id="instagram-brands" xmlns="http://www.w3.org/2000/svg"><path fill="#fff" d="M224.1 141c-63.6 0-114.9 51.3-114.9 114.9s51.3 114.9 114.9 114.9S339 319.5 339 255.9 287.7 141 224.1 141zm0 189.6c-41.1 0-74.7-33.5-74.7-74.7s33.5-74.7 74.7-74.7 74.7 33.5 74.7 74.7-33.6 74.7-74.7 74.7zm146.4-194.3c0 14.9-12 26.8-26.8 26.8-14.9 0-26.8-12-26.8-26.8s12-26.8 26.8-26.8 26.8 12 26.8 26.8zm76.1 27.2c-1.7-35.9-9.9-67.7-36.2-93.9-26.2-26.2-58-34.4-93.9-36.2-37-2.1-147.9-2.1-184.9 0-35.8 1.7-67.6 9.9-93.9 36.1s-34.4 58-36.2 93.9c-2.1 37-2.1 147.9 0 184.9 1.7 35.9 9.9 67.7 36.2 93.9s58 34.4 93.9 36.2c37 2.1 147.9 2.1 184.9 0 35.9-1.7 67.7-9.9 93.9-36.2 26.2-26.2 34.4-58 36.2-93.9 2.1-37 2.1-147.8 0-184.8zM398.8 388c-7.8 19.6-22.9 34.7-42.6 42.6-29.5 11.7-99.5 9-132.1 9s-102.7 2.6-132.1-9c-19.6-7.8-34.7-22.9-42.6-42.6-11.7-29.5-9-99.5-9-132.1s-2.6-102.7 9-132.1c7.8-19.6 22.9-34.7 42.6-42.6 29.5-11.7 99.5-9 132.1-9s102.7-2.6 132.1 9c19.6 7.8 34.7 22.9 42.6 42.6 11.7 29.5 9 99.5 9 132.1s2.7 102.7-9 132.1z"/></svg><svg fill="none" viewBox="0 0 34 34" id="logo" xmlns="http://www.w3.org/2000/svg"><g clip-path="url(#hclip0)"><path d="M14.567 29.785L31.087.817 34 2.218l-17.523 30.91-1.91-3.343zm-3.63-6.53L24.096.11s3.007-.256 3.798.01C22.755 8.991 12.81 26.703 12.81 26.703l-1.874-3.45zM0 4.124s.252.104.524.23c1.033.477 2.237.844 3.483 1.06l.604.106 6.434 11.322-1.881 3.29L0 4.126zm8.24 1.528s.477-.07 1.034-.13c.557-.061 1.3-.181 1.65-.267.351-.086.724-.157.724-.157l3.039 5.267-1.878 3.362-4.57-8.075z" fill="#F57500"/></g><defs><clipPath id="hclip0"><path fill="#fff" d="M0 0h34v33.128H0z"/></clipPath></defs></svg><svg viewBox="0 0 21 20" id="phone" xmlns="http://www.w3.org/2000/svg"><path d="M13.532 14.214l1.722-1.723a1.683 1.683 0 011.8-.37l2.098.84a1.677 1.677 0 011.046 1.537v3.846a1.67 1.67 0 01-1.753 1.654C3.737 19.083.769 6.622.208 1.854A1.67 1.67 0 011.876 0H5.59a1.66 1.66 0 011.537 1.046l.838 2.1a1.662 1.662 0 01-.36 1.8L5.881 6.669s.992 6.714 7.65 7.545z"/></svg><svg aria-hidden="true" data-prefix="fas" data-icon="share" class="jsvg-inline--fa jfa-share jfa-w-16" viewBox="0 0 512 512" id="share-solid" xmlns="http://www.w3.org/2000/svg"><path fill="#fff" d="M503.691 189.836L327.687 37.851C312.281 24.546 288 35.347 288 56.015v80.053C127.371 137.907 0 170.1 0 322.326c0 61.441 39.581 122.309 83.333 154.132 13.653 9.931 33.111-2.533 28.077-18.631C66.066 312.814 132.917 274.316 288 272.085V360c0 20.7 24.3 31.453 39.687 18.164l176.004-152c11.071-9.562 11.086-26.753 0-36.328z"/></svg><svg aria-hidden="true" data-prefix="fab" data-icon="twitter" class="ksvg-inline--fa kfa-twitter kfa-w-16" viewBox="0 0 512 512" id="twitter-brands" xmlns="http://www.w3.org/2000/svg"><path fill="#fff" d="M459.37 151.716c.325 4.548.325 9.097.325 13.645 0 138.72-105.583 298.558-298.558 298.558-59.452 0-114.68-17.219-161.137-47.106 8.447.974 16.568 1.299 25.34 1.299 49.055 0 94.213-16.568 130.274-44.832-46.132-.975-84.792-31.188-98.112-72.772 6.498.974 12.995 1.624 19.818 1.624 9.421 0 18.843-1.3 27.614-3.573-48.081-9.747-84.143-51.98-84.143-102.985v-1.299c13.969 7.797 30.214 12.67 47.431 13.319-28.264-18.843-46.781-51.005-46.781-87.391 0-19.492 5.197-37.36 14.294-52.954 51.655 63.675 129.3 105.258 216.365 109.807-1.624-7.797-2.599-15.918-2.599-24.04 0-57.828 46.782-104.934 104.934-104.934 30.213 0 57.502 12.67 76.67 33.137 23.715-4.548 46.456-13.32 66.599-25.34-7.798 24.366-24.366 44.833-46.132 57.827 21.117-2.273 41.584-8.122 60.426-16.243-14.292 20.791-32.161 39.308-52.628 54.253z"/></svg><svg aria-hidden="true" data-prefix="fab" data-icon="vk" class="lsvg-inline--fa lfa-vk lfa-w-18" viewBox="0 0 576 512" id="vk-brands" xmlns="http://www.w3.org/2000/svg"><path fill="#fff" d="M545 117.7c3.7-12.5 0-21.7-17.8-21.7h-58.9c-15 0-21.9 7.9-25.6 16.7 0 0-30 73.1-72.4 120.5-13.7 13.7-20 18.1-27.5 18.1-3.7 0-9.4-4.4-9.4-16.9V117.7c0-15-4.2-21.7-16.6-21.7h-92.6c-9.4 0-15 7-15 13.5 0 14.2 21.2 17.5 23.4 57.5v86.8c0 19-3.4 22.5-10.9 22.5-20 0-68.6-73.4-97.4-157.4-5.8-16.3-11.5-22.9-26.6-22.9H38.8c-16.8 0-20.2 7.9-20.2 16.7 0 15.6 20 93.1 93.1 195.5C160.4 378.1 229 416 291.4 416c37.5 0 42.1-8.4 42.1-22.9 0-66.8-3.4-73.1 15.4-73.1 8.7 0 23.7 4.4 58.7 38.1 40 40 46.6 57.9 69 57.9h58.9c16.8 0 25.3-8.4 20.4-25-11.2-34.9-86.9-106.7-90.3-111.5-8.7-11.2-6.2-16.2 0-26.2.1-.1 72-101.3 79.4-135.6z"/></svg></svg>